<?xml version="1.0" encoding="UTF-8"?><svg id="a" xmlns="http://www.w3.org/2000/svg" width="90.3" height="109.2" viewBox="0 0 90.3 109.2"><path d="M2,2h86.3v91.4c0,7.6-6.2,13.8-13.8,13.8H2V2h0Z" fill="none" stroke="#34225c" stroke-miterlimit="10" stroke-width="4"/><line x1="13.6" y1="13.2" x2="27.1" y2="13.2" fill="none" stroke="#34225c" stroke-linecap="round" stroke-miterlimit="10" stroke-width="4"/><line x1="13.6" y1="49.7" x2="35.3" y2="49.7" fill="none" stroke="#34225c" stroke-linecap="round" stroke-miterlimit="10" stroke-width="4"/><line x1="13.6" y1="63.3" x2="41.5" y2="63.3" fill="none" stroke="#34225c" stroke-linecap="round" stroke-miterlimit="10" stroke-width="4"/><line x1="13.6" y1="76.8" x2="77.5" y2="76.8" fill="none" stroke="#34225c" stroke-linecap="round" stroke-miterlimit="10" stroke-width="4"/><line x1="13.2" y1="90.3" x2="77.1" y2="90.3" fill="none" stroke="#34225c" stroke-linecap="round" stroke-miterlimit="10" stroke-width="4"/><line x1="49.6" y1="63.3" x2="77.5" y2="63.3" fill="none" stroke="#34225c" stroke-linecap="round" stroke-miterlimit="10" stroke-width="4"/><path d="M58.4,31.6l11.6,9.7c-2.9,3.4-7.1,5.4-11.6,5.4-8.3,0-15.1-6.8-15.1-15.1s5.6-13.9,13-15l2.1,15Z" fill="#02a0c6" fill-rule="evenodd" stroke="#231f20" stroke-miterlimit="10"/><path d="M60.5,28.3l-1.4-15c.5,0,.9,0,1.4,0,6.1,0,11.6,3.7,13.9,9.2l-13.9,5.9Z" fill="#7d8db4" fill-rule="evenodd" stroke="#231f20" stroke-miterlimit="10"/><path d="M62,30.7l13.8-6.3c.9,2,1.4,4.1,1.4,6.3,0,3.5-1.2,7-3.5,9.7l-11.6-9.7Z" fill="#f3d890" fill-rule="evenodd" stroke="#231f20" stroke-miterlimit="10"/><rect x="12.2" y="25.5" width="6" height="17.4" rx=".7" ry=".7" fill="#34225c"/><rect x="21.7" y="20.1" width="6" height="22.7" rx=".7" ry=".7" fill="#34225c"/><rect x="30.7" y="34.2" width="6" height="8.7" rx=".7" ry=".7" fill="#34225c"/></svg>