<svg width="20" height="20" viewBox="0 0 20 20" fill="none" xmlns="http://www.w3.org/2000/svg">
<path d="M1.6665 3.33329C1.6665 2.41282 2.4127 1.66663 3.33317 1.66663H11.6665C12.587 1.66663 13.3332 2.41282 13.3332 3.33329V6.66663H16.6665C17.587 6.66663 18.3332 7.41282 18.3332 8.33329V16.6666C18.3332 17.5871 17.587 18.3333 16.6665 18.3333H8.33317C7.4127 18.3333 6.6665 17.5871 6.6665 16.6666V13.3333H3.33317C2.4127 13.3333 1.6665 12.5871 1.6665 11.6666V3.33329ZM8.33317 13.3333V16.6666H16.6665V8.33329H13.3332V11.6666C13.3332 12.5871 12.587 13.3333 11.6665 13.3333H8.33317ZM11.6665 11.6666V3.33329L3.33317 3.33329V11.6666H11.6665Z" fill="#94A6B3"/>
</svg>
