<svg width="100" height="16" viewBox="0 0 100 16" fill="none" xmlns="http://www.w3.org/2000/svg">
<path d="M14.068 6.1703H10.3285C10.2786 5.79233 10.1764 5.45117 10.0218 5.14683C9.86727 4.84249 9.66285 4.58233 9.40856 4.36635C9.15428 4.15036 8.85262 3.98592 8.50361 3.87302C8.15957 3.75521 7.77814 3.69631 7.35932 3.69631C6.61641 3.69631 5.97571 3.87547 5.43722 4.23381C4.90372 4.59215 4.49238 5.11002 4.20319 5.78742C3.91899 6.46482 3.77689 7.28458 3.77689 8.24669C3.77689 9.24806 3.92148 10.0875 4.21067 10.7649C4.50484 11.4373 4.91619 11.9454 5.4447 12.289C5.9782 12.6277 6.60893 12.7971 7.33689 12.7971C7.74574 12.7971 8.11719 12.7455 8.45125 12.6424C8.7903 12.5394 9.08697 12.3896 9.34125 12.1933C9.60052 11.992 9.81243 11.7491 9.97697 11.4643C10.1465 11.1747 10.2637 10.8483 10.3285 10.4851L14.068 10.5071C14.0032 11.1747 13.8062 11.8325 13.4771 12.4805C13.153 13.1284 12.7068 13.7199 12.1384 14.255C11.57 14.7851 10.8769 15.2072 10.0592 15.5214C9.24652 15.8356 8.31414 15.9926 7.26209 15.9926C5.87599 15.9926 4.63448 15.6932 3.53756 15.0943C2.44563 14.4906 1.58305 13.6119 0.949831 12.4584C0.31661 11.3048 0 9.90092 0 8.24669C0 6.58754 0.321596 5.18119 0.964789 4.02764C1.60798 2.8741 2.47804 1.99789 3.57496 1.39903C4.67187 0.800164 5.90092 0.500732 7.26209 0.500732C8.18949 0.500732 9.04708 0.628359 9.83487 0.883613C10.6227 1.13396 11.3157 1.50211 11.914 1.98807C12.5123 2.46913 12.9985 3.06063 13.3724 3.76257C13.7464 4.46452 13.9782 5.2671 14.068 6.1703Z" fill="#67ADC8"/>
<path d="M19.7407 15.9779C19.0078 15.9779 18.3571 15.8576 17.7887 15.6171C17.2253 15.3717 16.779 15.0035 16.45 14.5127C16.1259 14.0169 15.9638 13.3959 15.9638 12.6498C15.9638 12.0215 16.076 11.4913 16.3004 11.0594C16.5247 10.6274 16.8339 10.2764 17.2278 10.0065C17.6217 9.73648 18.0754 9.53277 18.5889 9.39532C19.1025 9.25297 19.651 9.15725 20.2343 9.10816C20.8875 9.04926 21.4135 8.9879 21.8124 8.92409C22.2113 8.85537 22.5005 8.75965 22.6799 8.63693C22.8644 8.5093 22.9567 8.33013 22.9567 8.09942V8.06261C22.9567 7.68464 22.8245 7.39257 22.5603 7.1864C22.296 6.98024 21.9395 6.87715 21.4908 6.87715C21.0071 6.87715 20.6182 6.98024 20.3241 7.1864C20.0299 7.39257 19.8429 7.67727 19.7631 8.04052L16.3901 7.92271C16.4898 7.23549 16.7466 6.6219 17.1605 6.08194C17.5793 5.53707 18.1527 5.11002 18.8806 4.80077C19.6136 4.48661 20.4936 4.32953 21.5207 4.32953C22.2536 4.32953 22.9292 4.41543 23.5475 4.58724C24.1658 4.75413 24.7043 4.99957 25.163 5.32354C25.6217 5.64261 25.9757 6.03531 26.225 6.50164C26.4793 6.96796 26.6064 7.50056 26.6064 8.09942V15.7865H23.1661V14.2108H23.0763C22.8719 14.5937 22.6101 14.9176 22.291 15.1827C21.9769 15.4478 21.6055 15.6466 21.1767 15.7791C20.7529 15.9116 20.2742 15.9779 19.7407 15.9779ZM20.87 13.6217C21.2639 13.6217 21.6179 13.5432 21.932 13.3861C22.2512 13.229 22.5054 13.013 22.6949 12.7382C22.8844 12.4584 22.9791 12.1344 22.9791 11.7662V10.6912C22.8744 10.7452 22.7473 10.7943 22.5977 10.8385C22.4531 10.8827 22.2935 10.9244 22.119 10.9637C21.9445 11.0029 21.765 11.0373 21.5805 11.0667C21.3961 11.0962 21.2191 11.1232 21.0495 11.1477C20.7055 11.2017 20.4113 11.2852 20.167 11.3981C19.9277 11.511 19.7432 11.6582 19.6136 11.8399C19.4889 12.0166 19.4266 12.2277 19.4266 12.4731C19.4266 12.8461 19.5612 13.1309 19.8305 13.3272C20.1047 13.5236 20.4512 13.6217 20.87 13.6217Z" fill="#67ADC8"/>
<path d="M39.1879 7.93007L35.8298 8.01843C35.7949 7.78281 35.7002 7.57419 35.5456 7.39257C35.391 7.20604 35.1891 7.06123 34.9398 6.95815C34.6955 6.85016 34.4113 6.79616 34.0872 6.79616C33.6634 6.79616 33.3019 6.87961 33.0027 7.0465C32.7086 7.2134 32.564 7.4392 32.569 7.72391C32.564 7.9448 32.6537 8.13624 32.8382 8.29823C33.0277 8.46021 33.3642 8.59029 33.8479 8.68847L36.0616 9.1008C37.2084 9.31678 38.061 9.67512 38.6195 10.1758C39.1829 10.6765 39.4671 11.3392 39.4721 12.1638C39.4671 12.9394 39.2327 13.6144 38.769 14.1887C38.3103 14.763 37.6821 15.2097 36.8843 15.5288C36.0866 15.8429 35.1741 16 34.147 16C32.5066 16 31.2128 15.6687 30.2654 15.006C29.3231 14.3384 28.7846 13.445 28.65 12.3258L32.2623 12.2375C32.3421 12.6498 32.549 12.964 32.8831 13.1799C33.2171 13.3959 33.6434 13.5039 34.162 13.5039C34.6307 13.5039 35.0121 13.418 35.3063 13.2462C35.6004 13.0744 35.75 12.8462 35.755 12.5614C35.75 12.3062 35.6353 12.1025 35.411 11.9503C35.1866 11.7932 34.8351 11.6705 34.3564 11.5822L32.3521 11.2066C31.2003 11.0005 30.3427 10.62 29.7793 10.0654C29.2159 9.50577 28.9367 8.79401 28.9417 7.93007C28.9367 7.17413 29.1411 6.52863 29.5549 5.99358C29.9688 5.45363 30.5571 5.04129 31.32 4.75659C32.0828 4.47188 32.9828 4.32953 34.0199 4.32953C35.5755 4.32953 36.8021 4.65105 37.6995 5.29409C38.597 5.93223 39.0931 6.81089 39.1879 7.93007Z" fill="#67ADC8"/>
<path d="M45.2458 9.33642V15.7865H41.5885V0.706898H45.1261V6.55318H45.2532C45.5125 5.85614 45.9363 5.31127 46.5247 4.91858C47.118 4.52588 47.8435 4.32953 48.7011 4.32953C49.5088 4.32953 50.2118 4.50624 50.8101 4.85967C51.4085 5.20819 51.8722 5.70152 52.2012 6.33965C52.5353 6.97778 52.6998 7.72391 52.6948 8.57802V15.7865H49.0376V9.28488C49.0426 8.65656 48.883 8.16569 48.559 7.81226C48.2349 7.45884 47.7787 7.28212 47.1903 7.28212C46.8064 7.28212 46.4673 7.36557 46.1732 7.53247C45.884 7.69445 45.6571 7.92762 45.4926 8.23196C45.333 8.5363 45.2508 8.90445 45.2458 9.33642Z" fill="#67ADC8"/>
<path d="M61.8228 4.47675V7.12746H54.4336V4.47675H61.8228ZM55.9743 15.7864V3.90243C55.9743 3.02868 56.1413 2.30464 56.4754 1.73032C56.8094 1.15109 57.2731 0.719127 57.8664 0.434422C58.4598 0.144807 59.1454 0 59.9232 0C60.4317 0 60.9104 0.0392702 61.3591 0.11781C61.8129 0.191441 62.1494 0.257708 62.3688 0.316613L61.7854 2.95259C61.6508 2.90841 61.4863 2.8716 61.2918 2.84215C61.1024 2.81269 60.9229 2.79797 60.7533 2.79797C60.3245 2.79797 60.0304 2.89123 59.8708 3.07777C59.7113 3.2643 59.6315 3.51955 59.6315 3.84352V15.7864H55.9743Z" fill="#151E28"/>
<path d="M67.5554 0.706855V15.7864H63.8982V0.706855H67.5554Z" fill="#151E28"/>
<path d="M75.5616 16C74.355 16 73.3179 15.757 72.4503 15.271C71.5877 14.7801 70.9221 14.0978 70.4534 13.2241C69.9897 12.3454 69.7579 11.3269 69.7579 10.1684C69.7579 9.00504 69.9897 7.98648 70.4534 7.11273C70.9221 6.23407 71.5877 5.55176 72.4503 5.06579C73.3179 4.57492 74.355 4.32949 75.5616 4.32949C76.7682 4.32949 77.8028 4.57492 78.6654 5.06579C79.5329 5.55176 80.1986 6.23407 80.6622 7.11273C81.1309 7.98648 81.3653 9.00504 81.3653 10.1684C81.3653 11.3269 81.1309 12.3454 80.6622 13.2241C80.1986 14.0978 79.5329 14.7801 78.6654 15.271C77.8028 15.757 76.7682 16 75.5616 16ZM75.584 13.283C76.0228 13.283 76.3942 13.1504 76.6984 12.8854C77.0025 12.6203 77.2344 12.2522 77.3939 11.7809C77.5585 11.3097 77.6407 10.7648 77.6407 10.1463C77.6407 9.518 77.5585 8.96822 77.3939 8.49699C77.2344 8.02575 77.0025 7.6576 76.6984 7.39253C76.3942 7.12746 76.0228 6.99492 75.584 6.99492C75.1303 6.99492 74.7464 7.12746 74.4323 7.39253C74.1231 7.6576 73.8863 8.02575 73.7217 8.49699C73.5622 8.96822 73.4824 9.518 73.4824 10.1463C73.4824 10.7648 73.5622 11.3097 73.7217 11.7809C73.8863 12.2522 74.1231 12.6203 74.4323 12.8854C74.7464 13.1504 75.1303 13.283 75.584 13.283Z" fill="#151E28"/>
<path d="M85.4543 15.7864L82.4627 4.47675H86.1349L87.6831 11.722H87.7803L89.4406 4.47675H93.0231L94.7283 11.6705H94.8255L96.3288 4.47675H100.001L97.0019 15.7864H93.0904L91.2954 9.19648H91.1683L89.3733 15.7864H85.4543Z" fill="#151E28"/>
</svg>
